<svg xmlns="http://www.w3.org/2000/svg" width="113" height="40" viewBox="0 0 113 40">
  <g id="logo" transform="translate(325 79)">
    <path id="new_logo" d="M15.05,37.87a.854.854,0,0,1-.042,1.2l-1.842,1.722a.847.847,0,0,1-1.2-.043L1.244,29.19a.854.854,0,0,1,.043-1.2l1.844-1.72a.846.846,0,0,1,1.2.043ZM28.736,16.12a.854.854,0,0,1-.043,1.2L17.1,28.149a.847.847,0,0,1-1.2-.043L13.138,25.12a.854.854,0,0,1,.043-1.2L24.77,13.091a.845.845,0,0,1,1.2.043l2.77,2.986ZM18.994,34.184a.854.854,0,0,1-.043,1.2l-1.844,1.721a.846.846,0,0,1-1.2-.043L5.19,25.5a.854.854,0,0,1,.042-1.2l1.841-1.72a.847.847,0,0,1,1.2.043Zm17.86-17.649a.854.854,0,0,1-.044,1.2l-1.843,1.721a.848.848,0,0,1-1.2-.042L23.048,7.857a.853.853,0,0,1,.042-1.2l1.849-1.726a.845.845,0,0,1,1.2.043Zm3.938-3.68a.856.856,0,0,1-.043,1.2l-1.84,1.72a.845.845,0,0,1-1.2-.042L26.994,4.172a.856.856,0,0,1,.042-1.2l1.842-1.724a.844.844,0,0,1,1.195.042Z" transform="translate(-326.018 -80.019)" fill="#ff4d06"/>
    <text id="iSport" transform="translate(-285 -45)" fill="#f2f2f2" font-size="24" font-family="Montserrat-Medium, Montserrat" font-weight="500"><tspan x="0" y="0">i</tspan><tspan y="0" fill="#d7dbdd">Sport</tspan></text>
  </g>
</svg>
