<svg xmlns="http://www.w3.org/2000/svg" width="100" height="100" viewBox="0 0 100 100">
  <path id="new_logo" d="M36.1,93.146a2.135,2.135,0,0,1-.106,3l-4.6,4.305a2.118,2.118,0,0,1-2.991-.108L1.582,71.447a2.135,2.135,0,0,1,.108-3l4.611-4.3a2.116,2.116,0,0,1,2.991.108ZM70.313,38.771a2.135,2.135,0,0,1-.108,3L41.226,68.843a2.118,2.118,0,0,1-2.991-.108l-6.917-7.464a2.135,2.135,0,0,1,.108-3L60.4,31.2a2.114,2.114,0,0,1,2.989.108l6.926,7.464ZM45.958,83.931a2.136,2.136,0,0,1-.108,3l-4.611,4.3a2.116,2.116,0,0,1-2.991-.108l-26.8-28.9a2.135,2.135,0,0,1,.106-3l4.6-4.3a2.118,2.118,0,0,1,2.991.108ZM90.609,39.807a2.135,2.135,0,0,1-.11,3l-4.609,4.3a2.12,2.12,0,0,1-2.993-.106l-26.8-28.892a2.133,2.133,0,0,1,.106-3L60.821,10.8a2.114,2.114,0,0,1,2.989.108Zm9.845-9.2a2.139,2.139,0,0,1-.108,3l-4.6,4.3a2.114,2.114,0,0,1-2.989-.106L65.957,8.9a2.139,2.139,0,0,1,.106-3l4.6-4.31a2.109,2.109,0,0,1,2.987.106Z" transform="translate(-1.018 -1.019)" fill="#ff4d06"/>
</svg>
